<svg width="16" height="20" viewBox="0 0 16 20" fill="none" xmlns="http://www.w3.org/2000/svg">
<path d="M10.4988 15.8334C10.4988 17.2141 9.3795 18.3334 7.99879 18.3334C6.61808 18.3334 5.49879 17.2141 5.49879 15.8334M9.49588 5.19882C9.85879 4.82389 10.0821 4.31304 10.0821 3.75002C10.0821 2.59943 9.14938 1.66669 7.99879 1.66669C6.8482 1.66669 5.91546 2.59943 5.91546 3.75002C5.91546 4.31304 6.13879 4.82389 6.5017 5.19882M12.9988 9.33335C12.9988 8.18408 12.472 7.08188 11.5343 6.26922C10.5966 5.45657 9.32487 5.00002 7.99879 5.00002C6.67271 5.00002 5.40094 5.45657 4.46326 6.26922C3.52558 7.08188 2.99879 8.18408 2.99879 9.33335C2.99879 11.2349 2.52723 12.6255 1.93884 13.6206C1.26824 14.7547 0.932937 15.3218 0.946178 15.4572C0.961327 15.6122 0.989221 15.6611 1.11491 15.753C1.22477 15.8334 1.77672 15.8334 2.88061 15.8334H13.117C14.2209 15.8334 14.7728 15.8334 14.8827 15.753C15.0084 15.6611 15.0363 15.6122 15.0514 15.4572C15.0646 15.3218 14.7293 14.7547 14.0587 13.6206C13.4703 12.6255 12.9988 11.2349 12.9988 9.33335Z" stroke="#2E2E2E" stroke-width="1.5" stroke-linecap="round" stroke-linejoin="round"/>
</svg>
