<svg width="36" height="36" viewBox="0 0 36 36" fill="none" xmlns="http://www.w3.org/2000/svg">
<path d="M0.5 8C0.5 3.85786 3.85786 0.5 8 0.5H28C32.1421 0.5 35.5 3.85786 35.5 8V28C35.5 32.1421 32.1421 35.5 28 35.5H8C3.85786 35.5 0.5 32.1421 0.5 28V8Z" fill="white"/>
<path d="M0.5 8C0.5 3.85786 3.85786 0.5 8 0.5H28C32.1421 0.5 35.5 3.85786 35.5 8V28C35.5 32.1421 32.1421 35.5 28 35.5H8C3.85786 35.5 0.5 32.1421 0.5 28V8Z" stroke="#E6E6E6"/>
<path d="M17.7915 18.625C18.1367 18.625 18.4165 18.3452 18.4165 18C18.4165 17.6548 18.1367 17.375 17.7915 17.375C17.4463 17.375 17.1665 17.6548 17.1665 18C17.1665 18.3452 17.4463 18.625 17.7915 18.625Z" stroke="#5D5D5D" stroke-width="1.5" stroke-linecap="round" stroke-linejoin="round"/>
<path d="M17.7915 14.25C18.1367 14.25 18.4165 13.9702 18.4165 13.625C18.4165 13.2798 18.1367 13 17.7915 13C17.4463 13 17.1665 13.2798 17.1665 13.625C17.1665 13.9702 17.4463 14.25 17.7915 14.25Z" stroke="#5D5D5D" stroke-width="1.5" stroke-linecap="round" stroke-linejoin="round"/>
<path d="M17.7915 23C18.1367 23 18.4165 22.7202 18.4165 22.375C18.4165 22.0298 18.1367 21.75 17.7915 21.75C17.4463 21.75 17.1665 22.0298 17.1665 22.375C17.1665 22.7202 17.4463 23 17.7915 23Z" stroke="#5D5D5D" stroke-width="1.5" stroke-linecap="round" stroke-linejoin="round"/>
</svg>
