<svg width="20" height="20" viewBox="0 0 20 20" fill="none" xmlns="http://www.w3.org/2000/svg">
<rect width="20" height="20" rx="10" fill="#1F2937"/>
<path fill-rule="evenodd" clip-rule="evenodd" d="M13.0122 9.86301C11.903 12.3839 12.071 10.905 12.0374 9.08994C11.9366 2.46843 5.51673 3.30872 3.36558 5.99766C1.34888 8.51854 3.43281 12.3167 6.15536 9.89662C8.20568 8.08159 4.74366 7.87992 6.25619 6.33378C9.24764 3.27511 8.77708 8.85466 7.66789 11.2411C7.39899 11.8125 7.09649 12.2494 6.79398 12.6192C6.45786 12.9553 6.15536 13.1234 5.85285 13.1234C5.28145 13.0897 5.14701 12.72 5.34868 11.9469C5.38229 11.8461 5.31506 11.7789 5.14701 11.678C5.01256 11.5772 4.81089 11.51 4.60922 11.4764C4.37393 11.4092 4.17226 11.4092 4.00421 11.4092C3.56725 11.4428 3.19752 11.5772 2.86141 11.8461C2.52529 12.115 2.32362 12.4847 2.22278 12.9553C1.68499 16.3501 6.5587 17.6946 8.70985 12.7872C10.1888 9.42606 10.0879 6.23294 9.51653 13.157C9.24764 16.2829 11.8694 15.577 12.676 13.6275C15.6675 6.33378 14.6255 11.3419 14.3902 14.0645C14.2222 16.1484 15.0961 15.5098 16.4069 14.535C17.6506 13.6275 17.8186 12.0814 17.8186 9.86301C17.8186 6.36739 14.8272 5.96405 13.0122 9.86301Z" fill="url(#paint0_linear_296_2034)"/>
<defs>
<linearGradient id="paint0_linear_296_2034" x1="2.17287" y1="10.8184" x2="32.5596" y2="10.8184" gradientUnits="userSpaceOnUse">
<stop offset="0.017357" stop-color="#48A1EB"/>
<stop offset="1" stop-color="#55D4F6"/>
</linearGradient>
</defs>
</svg>
