<svg width="18" height="18" viewBox="0 0 18 18" fill="none" xmlns="http://www.w3.org/2000/svg">
<path d="M5.66667 13.1664H12.3333M8.18141 1.30313L2.52949 5.69907C2.15168 5.99292 1.96278 6.13984 1.82669 6.32384C1.70614 6.48683 1.61633 6.67045 1.56169 6.86567C1.5 7.08606 1.5 7.32537 1.5 7.804V13.8331C1.5 14.7665 1.5 15.2332 1.68166 15.5898C1.84144 15.9034 2.09641 16.1583 2.41002 16.3181C2.76654 16.4998 3.23325 16.4998 4.16667 16.4998H13.8333C14.7668 16.4998 15.2335 16.4998 15.59 16.3181C15.9036 16.1583 16.1586 15.9034 16.3183 15.5898C16.5 15.2332 16.5 14.7665 16.5 13.8331V7.804C16.5 7.32537 16.5 7.08606 16.4383 6.86567C16.3837 6.67045 16.2939 6.48683 16.1733 6.32384C16.0372 6.13984 15.8483 5.99292 15.4705 5.69907L9.81859 1.30313C9.52582 1.07542 9.37943 0.96156 9.21779 0.917795C9.07516 0.879178 8.92484 0.879178 8.78221 0.917795C8.62057 0.96156 8.47418 1.07542 8.18141 1.30313Z" stroke="#2E2E2E" stroke-width="1.5" stroke-linecap="round" stroke-linejoin="round"/>
</svg>
