<svg width="20" height="14" viewBox="0 0 20 14" fill="none" xmlns="http://www.w3.org/2000/svg">
<path d="M18.3332 5.33334H1.6665M9.1665 8.66667H4.99984M1.6665 3.83334L1.6665 10.1667C1.6665 11.1001 1.6665 11.5668 1.84816 11.9233C2.00795 12.2369 2.26292 12.4919 2.57652 12.6517C2.93304 12.8333 3.39975 12.8333 4.33317 12.8333L15.6665 12.8333C16.5999 12.8333 17.0666 12.8333 17.4232 12.6517C17.7368 12.4919 17.9917 12.2369 18.1515 11.9233C18.3332 11.5668 18.3332 11.1001 18.3332 10.1667V3.83334C18.3332 2.89992 18.3332 2.43321 18.1515 2.07669C17.9917 1.76309 17.7368 1.50812 17.4232 1.34833C17.0666 1.16667 16.5999 1.16667 15.6665 1.16667L4.33317 1.16667C3.39975 1.16667 2.93304 1.16667 2.57652 1.34833C2.26292 1.50812 2.00795 1.76308 1.84816 2.07669C1.6665 2.43321 1.6665 2.89992 1.6665 3.83334Z" stroke="#2E2E2E" stroke-width="1.5" stroke-linecap="round" stroke-linejoin="round"/>
</svg>
