<svg width="44" height="50" viewBox="0 0 44 50" fill="none" xmlns="http://www.w3.org/2000/svg">
<rect width="44" height="50" fill="#F7F7F7"/>
<path d="M30.3332 23.3333H13.6665M21.1665 26.6667H16.9998M13.6665 21.8333L13.6665 28.1667C13.6665 29.1001 13.6665 29.5668 13.8482 29.9233C14.0079 30.2369 14.2629 30.4919 14.5765 30.6517C14.933 30.8333 15.3997 30.8333 16.3332 30.8333L27.6665 30.8333C28.5999 30.8333 29.0666 30.8333 29.4232 30.6517C29.7368 30.4919 29.9917 30.2369 30.1515 29.9233C30.3332 29.5668 30.3332 29.1001 30.3332 28.1667V21.8333C30.3332 20.8999 30.3332 20.4332 30.1515 20.0767C29.9917 19.7631 29.7368 19.5081 29.4232 19.3483C29.0666 19.1667 28.5999 19.1667 27.6665 19.1667L16.3332 19.1667C15.3998 19.1667 14.933 19.1667 14.5765 19.3483C14.2629 19.5081 14.0079 19.7631 13.8482 20.0767C13.6665 20.4332 13.6665 20.8999 13.6665 21.8333Z" stroke="#2E2E2E" stroke-width="1.5" stroke-linecap="round" stroke-linejoin="round"/>
</svg>
